<svg version="1.2" xmlns="http://www.w3.org/2000/svg" xmlns:xlink="http://www.w3.org/1999/xlink" viewBox="0 0 596 522" width="596" height="522">
  <defs>
    <path id="horse" fill="black" d="m320.9 257.3c8.6 6.2 19.9 19.7 32.5 20 1.6 0 6.7-1 11.8-3.4 6.1-2.8 12.3-7 13.8-7.7 5.5-2.7 12.2-6.1 18.2-7.8 5.7-1.6 10.1-2.8 17.9-1.3 7.5 2.7 17.1 9.2 19.8 16.9 2 6 3.9 16.2-1.8 21.3-2 1.8-4.3 1.1-4.1-1.3 0.3-3.4 0.8-9.3-1-12.1-0.5-0.8-2.1-1.4-3-1.7 0.3 7.4-9.3 18.4-16.6 17.9-3.5-0.2-3.4-2.5-2-3.8 1.3-1.2 3.7-1.5 4.5-1.8 5.5-1.8 3.9-9.2 1.9-13.1-4.1-8.1-17.8 0.6-15.1 2.1 0.5 0.4 1.1 0.8 1.7 1.2 0.5 0.4 0.7 1 0.5 1.6-0.2 1.2-1.3 1.4-2.3 0.9-0.8-0.5-2.1-1-3.1-1.3-1-0.2-2.7 0.5-3.5 1-1.4 0.9-1.8 1-3.1 2-1.2 1-2.4 2-3.2 3.2 11.6 9.1 25 21.4 38.7 27 4.5 1.8 35.7 18.7 43 8.7 4.9-6.7 4.4-10.9 4.3-14.8-0.3-8.2-12.1-12.7-12.2-18.4-0.1-5.9 13.5 3.5 14.5 5 3.7 3.5 8.9 8.9 8.3 15.5-0.1 2.6-0.2 4.6 9.2 3.7 7.7-0.6 14.5-1.9 22.3-0.7 18.6 2.9 35.9 19.4 42.5 23.9 6.6 4.5 13 6.3 16 5.7 6.3-1.3-0.5-14.1 6.7-11.5 3.9 9.8-0.3 15-8 15.7-7.7 0.7-15.5-5-23-10.1 1-0.7 17.2 36.7 21.1 41.4 3.9 4.6 8.2 6.1 11.3 5.8 6-0.4 8.9 5.7 1.6 5.3-6-0.3-10.1 0.3-14.8-4.3-2.7-2.7-8.2-10.4-13.1-8.2-0.5 3 0.3 4.5-0.5 5.7-3.1 4.4-9.5-2.1-11.3-9-1.1-3.9 0.5-5.4 1.2-8.7 2-10.6-10.2-25.1-22.2-30.7-7.1-3.3-13.2-3.7-20.9-3.7-4.7 0-24.3 5-20.1 12.2 0.5 0.9 4 2.5 8.8 3.1 5.6 0.8 13 0.6 19.1 2.2 8.6 2.1 14.8 6 11 10.8-5.1-0.7-7.6-7-13.4-5.1 0.1 1.8 4.6 4.4 9.3 7.6 4.8 3.3 9.7 7.2 11.2 8.6 6 5.3 15.2 27.2 4.1 23.5-0.7-0.2-0.5-4.3-1.4-8-1.2-4.7-3.8-8.6-7.1-2-1.8 3.7-5.3 6.9-9.3 8.3-5.8 1.9-13-0.2-11.1-6 2.2-0.6 3.9 1.6 6.5 2.1q4.7 0.9 9-5.5c5-7.4-13.1-25.6-14.9-21.4 1 3.8-0.7 11.4-5.8 12.3-3.8 0.6-8-3.9-7.6-5.1 0.9-2.3 3.6 0 5.6 0.3 2.1 0.2 3.9-0.6 3.3-4.5-0.2-1.1-2.3-5.4-5.8-6.3-13.6-3.6-23 3.2-36.2 3.4-26.8 0.4-48-17.2-65.3-35.4-9.5-10.1-18.9-17.1-32.1-21.3-9.6-3.1-14.4 23.1-13.7 29.3 0.6 5.2 0.7 18.4 12.1 25.7 9.1 5.9 25.2 10.9 27.7 17.4 4.1 10.5-9.4 18.7-16 24.5-10.1 9.1-17.6 22.6-25.4 33.7-5.1 7.2-6.9 24.6-6.1 32.8 0.5 5.3 7.7 2.6 9.9 6.1q1.5 2.5-0.9 4.3c-3.6 3.6 0.4 7.5 1.7 11 1.4 7.2-14.1 17.4-19.8 19.7-4.2-1.5-5.6-7.8-7.2-11.4q-1.8-4.5-3.7-8.9c-2.1-5.3 1.7-6.3 1.8-10.9 0.4-9.4-5.6-17.9-2.9-27.8 2.2-7.9 14.2-23.4 13.1-31-2.9-1.5-28.2 16.7-31.5 19.5-8.4 7.2-8.8 38.4-24.8 25.4 0.6 7.1 2.9 16.1 8.2 20.3 5.2 4.2-8.8 15.1-12.8 16.5-0.7 0.3-20.4 5.6-17.3-1.3 1.5-3.6 2.6-4.6 1.5-9.1-1.6-6.2 1.6-4.1 4.4-10 5.4-11-3.6-24.3 4.8-33.8 7.3-8.1 16.4-14.7 25.2-21.3 6.1-4.5 16.8-14.3 19.6-21.4 3.6-9.1 8.5-12.5-1.6-18.9-5.4-3.5-10.3-7-16.6-10.2-2-1-3.7-1.5-5.6-2.6-3.2-2.1-12.9-8.9-14.3-10.1-9.1-7.6-14.3-15.6-17.7-20.6-2.9-4.5-8.4-14.3-9.1-16.1-0.6-1.6-2.3-6.8-2.4-9.9-0.1-3.1 0.6-7.8-0.8-9.8-0.8-1.2-4.7-2.9-6.4-3.5-6.8-2.2-14.6-6.4-22.4-10.1-6.3-3-29.1-19.9-36.3-26.8-7.3-6.8-27-29.5-31.3-34.1-2.5-2.8-30-25-36.6-30.7-4.1-3.6-7.9-6.9-11.4-10.2-1.7-1.5-12-12.7-17.4-14.9-1.6 0.5-0.9 1.9-1.1 3.2-1 6.6-3.6 18.4 1.9 22.1 1.7 0.3 3.2-0.8 4.5 0-1.4 1.4-2.9 2.6-5.8 2.4-1.9 1.3-2.8 7.7-0.3 8.6 2.4 0.9 3.9-1.6 5.6-2.4 0-0.3 0.3-0.2 0.5-0.3-1.1 2-3 3.4-5 4.5-1.4 0-1.6 0.4-2.7 0-1.3 4.6 3.2 6.5 7.2 5.1-1.2 2.3-4.9 2.4-7.7 1.6-3.4 3 2.5 3.5 3.7 5.1-1.5 0.6-4.2 0.2-5.9-0.6 0.3 7.9 8.1 10.7 12.3 15.5 0.2 6.7-5.4 11.8-8.8 15.8-2.4 2.7-3.6 6.8-9.1 6.4-2.3-4.2-2.3-10.7-3.5-16-1.6-0.2-2.4 1.1-3.7 0.5 0.6-4.2 3-7.2 2.1-12.5-1.2-7.9-7.6-14.8-8.8-23.3-0.6-5 1.5-10 1.9-14.6 0.1-1.4-0.1-2.8 0-4.1 0.2-2 1.3-3.7 1.9-5.8 0.9-3.6 1.4-7.7 2.1-11.2 0.6-2.8 2.1-5.9 0.8-9.1-4.8 0.3-6.5 3.8-9.1 6.4-4.3 2.9-7.6 6.8-10.7 10.9-2.9 2.2-8.1 7.3-10.4 11-1.1 1.8-1 5.2 0.8 7.5 1.4-0.2 2.3-0.8 4.1-0.6-0.3 2.2-1.7 3.2-2.2 5.1 0.7 1.2 3.1 0.9 4 1.9 0.6 2.5-1.3 2.5-2.1 3.7-0.1 1.4 1.8 0.8 2.1 1.9-3.6 7.9 7 8.7 10.4 12.8 0.4 5.5 0.1 11-1.8 15.5-0.4 0.7-2.3 4.7-2.7 5.3-1.5 2.4-5.2 5.2-8.3 4.8-5-0.6-3.9-6.7-5.1-11.7-1.8-0.1-5.1 5.3-6.9 6.1 1.3-3.6 3.6-9.2 1.6-13.6-1.4-0.8-3.8-1.8-4-3.5-0.9-6.1-1.3-12.3-5.1-17.6-2.1-3-4.1-4.5-6.1-7.7-0.1-6.8 2.8-10.4 5.6-14.5 1.1-1.6 10.5-15.5 14.7-20.8 2.7-3.4 5.9-6.6 7.7-10.7 0.6-1.1 0.4-3.7 0.8-5.3 1.3-4.6 4.9-6.9 9.4-9.1 2.5-1.2 5.5-3 7.7-3.2 2.8-0.2 6.6 1.2 8.8 2.4 1.5 0.8 2.6 2.9 5.9 2.2 1.1-0.3 1.7-1.5 2.7-2.2 2.1-1.4 6.6-3.9 10.4-3.5 2.1 0.3 3.7 2 5.6 2.7 3.8 1.4 7.9 2.2 11.7 4 5.9 2.8 12.2 5 19.2 6.4 2.3-1.4 1.7-4.5 2.2-7.7 2.6-16.8 15.9-22.6 23.8-34.2 3.6-5.3 4.4-15.7 3.2-24.3-6.2-5.8-9.4 4-17.9 2.7-4-0.6-7.9-4.3-11.8-2.2-0.5 0.3-0.6 0.9-1.3 1.4-2.5 1.7-7.4 2.4-9.4 4.5-2.1 2.3-3.3 7.4-7.2 10.2-4.4 3.1-8.7 2.5-14.7 1-5.9-1.4-10.2-5.7-13-10.9-3.4-6.3 2.3-11.1 5.6-16 2.6-4.1 5-9.3 8.3-13.9 2.4-3.5 4.5-6.3 6.4-10.4 1.1-2.7 3.2-6.6 4-9.9 0.5-2.6-0.2-4-2.6-4.1-0.9 0-2.1 0.2-3.1 0.3-7.5 1.4-23 2-28.5-3.3-0.3-0.2-2-2-2.4-3.2-0.4-1.4-0.1-2.8 0.8-2.5 1.6 0.4 1.2 2.8 4.2 4.6 4.9 2.9 15.9 2.4 17.7 2.1 1.8-0.4-1.9-1.3-3.7-2.6-1.1-0.8-2.8-2-3.6-3.8-1-2.2-1.4-4.6-0.5-4.6 1.8 0 1.5 3.5 4.5 5.7 1.8 1.4 7.4 4.4 12.4 2.8 1.5-0.4 1.9-1.7 3.2-2.6 2-1.6 4.8-2.3 6.4-4 0.4-3.4-4.3-1.6-5.4-3.5-0.3-1.5 0.6-2.3 1.5-2.5 0.9-0.2 7.4-0.2 11.3-0.7 1.9-0.2 3.4-1.6 5.4-2.1 3.5-0.9 7.7-0.3 10.7-2.7 2.3-1.4 4.6-12.6 8-12.6 4.9 0.1-1.2 17.7 8 12.9 3.6-2 6.6-12.9 9.9-11.5 2.4 1 2.9 6.4 4 10.4 0.8 3 1.4 6.9 3.4 7.7 0.9 0.4 5.8 1 7 0.8 1.3-0.2 2.1-2 3.7-2.6 2.8-1.2 8.3-1.2 8.3 0.8 0 1.2-2 1.3-4.1 1.4-1.6 0.1-3 0.9-3 2 0.1 2.6 7 5.8 10.8 4.6 1.8-0.6 2.5-3 3.8-2.7 1.2 0.3 0 2.9 0 2.9 3 1.6 5.6 0.9 8-0.8 1.4-0.9 3.1-3.8 5-3.4 2.6 0.4 3.4 6.6 4.9 9.3 1 1.9 1.9 3.6 3.2 4.8 1.2 1.2 6.3 3.5 7.9 1.5 1.2-1.3 0.2-4-0.7-5.8-0.4-0.9-2.4-3.5-4.3-5.6-2.1-2.1-4.1-3.7-3.7-5 0.7-2.6 5.4 1.3 6.9 2.9 5.5 6 8.7 13.3 10.1 16.8 1.3 2.9 6.5 7 7.8 12 0.3 1.3-0.1 2.7 0.5 3.8 1.2 2 4 1.7 6.4 1.3 2.1-1.4 2.4-4.6 3.5-6.9 1.8 5.8-2.9 9.8-8.8 9.9-1.1 4.1-1.3 11 4.5 10.4 2.3-2.2 4.4-4.4 7.8-5.4-1.6 2.3-7.9 6.7-5.9 11 1.2 2.6 4.6-1.4 5.9-2.4 0.5 2.3-4.3 6.1-2.7 9.6 6.7 3.3 12.5-2.4 15.8-5.9-0.5 5.4-6.6 7.3-11 9.6-0.1 3.4 4.6 1.8 5.6 4-1.7 1.5-4-0.1-6.6 0-1.1 1.4-0.5 4.4 0.2 5.6 4.5 2 8.8 4 10.2 9.1-2.9-2.2-4.7-6.7-9.9-5.6 0.7 6.6 2.7 11.9 7.7 14.2-5.5 1.5-5.1-5-8.8-6.2-0.5 6.4 1.5 14 5.1 17.9-3.4-0.3-4.3-4.6-8.8-2.9 0.4 3.1 0.3 6.5 1.1 9.6 0.8 3.7 4.3 4.8 5.8 7.5-1.2 1.4-2.3-0.6-3.7-0.6-2.2 0.1-3.3 1.9-3 5.4-1.7-0.9-2-3-5-2.4-0.9 2 0.9 3.1 1.8 4.5 6.9 10.6 13.3 26 15.8 32 2.5 6.1 5.3 14.2 8 19 0.5 0.9 1.4 3.1 2.1 4.3 0.6 0.9 4.3 6.8 6.2 8.5 2.6 2.5 6 5.3 9.3 7.5 0.9 0.5 35.7 24.7 44.4 31z"/>

    <mask id="outsideHorse">
      <rect x="0" y="0" width="596" height="522" fill="white"/>
      <use xlink:href="#horse" fill="black"/>
    </mask>
  </defs>

  <use
    xlink:href="#horse"
    stroke-width="30" stroke="white" fill="white"
    mask="url(#outsideHorse)"
  />
  <use
    xlink:href="#horse"
    fill="black"
  />
</svg>
